<?xml version="1.0" standalone="no"?>
<!DOCTYPE svg PUBLIC "-//W3C//DTD SVG 20010904//EN"
 "http://www.w3.org/TR/2001/REC-SVG-20010904/DTD/svg10.dtd">
<svg version="1.0" xmlns="http://www.w3.org/2000/svg"
 width="121.000000pt" height="121.000000pt" viewBox="0 0 121.000000 121.000000"
 preserveAspectRatio="xMidYMid meet">
<metadata>
Created by potrace 1.11, written by Peter Selinger 2001-2013
</metadata>
<g transform="translate(0.000000,121.000000) scale(0.100000,-0.100000)"
fill="#000000" stroke="none">
<path d="M0 605 l0 -605 605 0 605 0 0 605 0 605 -605 0 -605 0 0 -605z m725
135 c4 -6 -6 -10 -22 -9 -25 0 -26 1 -8 9 11 5 21 9 22 9 1 1 5 -3 8 -9z
m-201 -125 c12 -13 14 -34 7 -77 0 -4 -15 -17 -33 -29 -17 -13 -28 -18 -24
-11 5 8 0 12 -13 12 -28 0 -28 41 0 86 23 37 39 42 63 19z"/>
</g>
</svg>
